<svg id="Capa_1" data-name="Capa 1" xmlns="http://www.w3.org/2000/svg" xmlns:xlink="http://www.w3.org/1999/xlink" viewBox="0 0 1080 1350"><defs><style>.cls-1{fill:url(#Degradado_sin_nombre_40);}.cls-2{fill:#fbfbfb;}.cls-3,.cls-5{fill:#ef007e;}.cls-4{font-size:26.03px;}.cls-11,.cls-4,.cls-7,.cls-8{fill:#fff;}.cls-11,.cls-4{font-family:Poppins-Regular, Poppins;}.cls-11,.cls-5{font-size:29.04px;letter-spacing:-0.02em;}.cls-5{font-family:Poppins-Bold, Poppins;font-weight:700;}.cls-12,.cls-6{fill:none;stroke-miterlimit:10;}.cls-6{stroke:#ef007e;stroke-width:4px;}.cls-8{font-size:35.63px;font-family:Poppins-SemiBold, Poppins;font-weight:600;}.cls-9{fill:#2fc7ea;}.cls-10{fill:#cdcdcd;}.cls-12{stroke:#fff;stroke-width:1.18px;}</style><linearGradient id="Degradado_sin_nombre_40" x1="540.33" y1="1350.74" x2="540.33" y2="844.43" gradientUnits="userSpaceOnUse"><stop offset="0" stop-color="#030300"/><stop offset="0.92" stop-color="#161614" stop-opacity="0.26"/><stop offset="1" stop-color="#1d1d1b" stop-opacity="0"/></linearGradient></defs><image width="2154" height="2691" transform="translate(-0.22 -0.02) scale(0.5)" xlink:href="Mesa%20de%20trabajo%202reservas1.png"/><rect class="cls-1" x="0.34" y="844.43" width="1079.99" height="506.31"/><path class="cls-2" d="M141.85,894.57,127.39,869H121.2v25.6H108.06v-65.7h24.59a28.72,28.72,0,0,1,12.95,2.68,18.69,18.69,0,0,1,8,7.25A19.78,19.78,0,0,1,156.3,849a19.56,19.56,0,0,1-3.76,11.72q-3.75,5.24-11.16,7.2l15.67,26.64ZM121.2,859.09h11c3.57,0,6.23-.87,8-2.59a9.67,9.67,0,0,0,2.63-7.2,9.21,9.21,0,0,0-2.63-7q-2.62-2.5-8-2.5h-11Z"/><path class="cls-2" d="M180,839.51V856H202v10.45H180v17.41h24.86v10.73h-38V828.78h38v10.73Z"/><path class="cls-2" d="M225.6,892.88a20.24,20.24,0,0,1-8.68-6.78,17.92,17.92,0,0,1-3.29-10.45h14.08a9.13,9.13,0,0,0,2.86,6.4,10.14,10.14,0,0,0,7.09,2.36,10.84,10.84,0,0,0,7.22-2.22,7.19,7.19,0,0,0,2.63-5.78,6.72,6.72,0,0,0-1.78-4.81,12.57,12.57,0,0,0-4.46-3,74.12,74.12,0,0,0-7.37-2.4,76.67,76.67,0,0,1-10.36-3.72,18,18,0,0,1-6.85-5.55q-2.87-3.72-2.87-9.93a17.81,17.81,0,0,1,2.91-10.17,18.55,18.55,0,0,1,8.17-6.63,29.54,29.54,0,0,1,12-2.31q10.13,0,16.47,4.94t7,13.79H245.92a7.54,7.54,0,0,0-2.87-5.6,10.77,10.77,0,0,0-7.08-2.21,9.11,9.11,0,0,0-6.15,2,7.15,7.15,0,0,0-2.3,5.74,5.92,5.92,0,0,0,1.74,4.37,13.13,13.13,0,0,0,4.32,2.83q2.58,1.08,7.27,2.49A76.46,76.46,0,0,1,251.27,860a18.74,18.74,0,0,1,6.94,5.64q2.91,3.78,2.91,9.89a18.7,18.7,0,0,1-2.72,9.79,19.32,19.32,0,0,1-8,7.2,27.1,27.1,0,0,1-12.48,2.68A31,31,0,0,1,225.6,892.88Z"/><path class="cls-2" d="M284.21,839.51V856h22.05v10.45H284.21v17.41h24.86v10.73h-38V828.78h38v10.73Z"/><path class="cls-2" d="M353.37,894.57,338.91,869h-6.19v25.6H319.58v-65.7h24.59a28.75,28.75,0,0,1,12.95,2.68,18.69,18.69,0,0,1,8,7.25,20.44,20.44,0,0,1-1.08,21.93q-3.75,5.24-11.16,7.2l15.67,26.64Zm-20.65-35.48h11c3.57,0,6.22-.87,8-2.59a9.66,9.66,0,0,0,2.62-7.2,9.2,9.2,0,0,0-2.62-7c-1.76-1.67-4.41-2.5-8-2.5h-11Z"/><path class="cls-2" d="M437.17,828.87l-24,65.7H397.19l-24-65.7h14.07l18,52.24,17.92-52.24Z"/><path class="cls-2" d="M483.81,882.05H457.72l-4.32,12.52H439.61l23.55-65.79h15.3L502,894.57H488.12Zm-3.57-10.54L470.76,844l-9.48,27.48Z"/><path class="cls-3" d="M124.62,913.66v14.08h22.63v13.08H124.62v15.27h25.59v13.58H107.72V900.08h42.49v13.58Z"/><path class="cls-3" d="M202.2,969.67l-14.13-21.31-12.46,21.31H156.44l22.24-35.39L156,900.08h19.66l13.94,21,12.25-21H221l-22,35.09,22.93,34.5Z"/><path class="cls-3" d="M245.79,900.08v69.59H228.88V900.08Z"/><path class="cls-3" d="M306.47,900.08v13.58H288.09v56h-16.9v-56H252.8V900.08Z"/><path class="cls-3" d="M328.36,965.8a34,34,0,0,1-12.95-12.73,37.6,37.6,0,0,1,0-36.73,34.22,34.22,0,0,1,12.95-12.69,37.57,37.57,0,0,1,35.88,0,33.47,33.47,0,0,1,12.85,12.69,38.12,38.12,0,0,1,0,36.73,33.71,33.71,0,0,1-12.85,12.73,37.4,37.4,0,0,1-35.83,0Zm31.23-16.45q5-5.55,5-14.67t-5-14.72q-5-5.51-13.29-5.5t-13.39,5.45q-5,5.45-5,14.77t5,14.72q5,5.51,13.39,5.5T359.59,949.35Z"/><path class="cls-3" d="M401.15,967.89a22.17,22.17,0,0,1-9.63-7.34,20,20,0,0,1-3.81-11.7h18a8.72,8.72,0,0,0,2.67,5.9,8.52,8.52,0,0,0,5.93,2,9.24,9.24,0,0,0,5.93-1.73,5.81,5.81,0,0,0,2.17-4.81,5.7,5.7,0,0,0-1.73-4.26,14,14,0,0,0-4.25-2.78,71.41,71.41,0,0,0-7.16-2.48,76.56,76.56,0,0,1-11-4.16,20.23,20.23,0,0,1-7.32-6.14q-3.06-4.06-3.06-10.61,0-9.72,7-15.22t18.28-5.5q11.46,0,18.48,5.5t7.51,15.32H420.92a7.2,7.2,0,0,0-2.47-5.31,8.69,8.69,0,0,0-5.83-1.93,7.28,7.28,0,0,0-4.95,1.64,6.31,6.31,0,0,0,1.29,10,51.27,51.27,0,0,0,9.88,4.06,90.72,90.72,0,0,1,10.92,4.37,20.74,20.74,0,0,1,7.27,6A16.25,16.25,0,0,1,440.09,949a20.08,20.08,0,0,1-3,10.81,21.16,21.16,0,0,1-8.75,7.73,29.8,29.8,0,0,1-13.54,2.88A35.66,35.66,0,0,1,401.15,967.89Z"/><path class="cls-3" d="M492.18,957.38h-25.9l-4.15,12.29H444.44l25.1-69.59h19.57l25.11,69.59H496.33Zm-4.35-13.09-8.6-25.47-8.5,25.47Z"/><text class="cls-4" transform="translate(472.81 1263.22)">Somos tu <tspan class="cls-5"><tspan x="0" y="30.04">solución.</tspan></tspan></text><line class="cls-6" x1="109.18" y1="1047.92" x2="179.29" y2="1047.92"/><rect class="cls-3" x="168.62" y="1099.12" width="231.35" height="48.01" rx="20.47"/><path class="cls-7" d="M125.25,1187h11.8v5.71h-19v-35.92h7.19Z"/><path class="cls-7" d="M168.46,1164.2v28.51h-7.24v-3.6a9.39,9.39,0,0,1-3.62,2.91,11.24,11.24,0,0,1-4.85,1,12.06,12.06,0,0,1-5.9-1.41,10,10,0,0,1-4-4.17,13.75,13.75,0,0,1-1.47-6.56V1164.2h7.19v15.7a7.4,7.4,0,0,0,1.69,5.22,6,6,0,0,0,4.62,1.83,6.06,6.06,0,0,0,4.67-1.83,7.4,7.4,0,0,0,1.69-5.22v-15.7Z"/><path class="cls-7" d="M176,1159.59a4.23,4.23,0,0,1,0-6,4.72,4.72,0,0,1,6.31,0,4.25,4.25,0,0,1,0,6,4.72,4.72,0,0,1-6.31,0Zm6.69,4.61v28.51h-7.18V1164.2Z"/><path class="cls-7" d="M194.42,1191.91a11.07,11.07,0,0,1-4.39-3.42,8.78,8.78,0,0,1-1.77-4.78h7.24a4,4,0,0,0,1.61,2.72,5.65,5.65,0,0,0,3.52,1.08,5.45,5.45,0,0,0,3.21-.82,2.49,2.49,0,0,0,1.15-2.11,2.21,2.21,0,0,0-1.41-2.08,26,26,0,0,0-4.49-1.52,38.53,38.53,0,0,1-5.21-1.6,9.12,9.12,0,0,1-3.49-2.52,6.8,6.8,0,0,1-1.46-4.58,7.36,7.36,0,0,1,1.36-4.32,9.1,9.1,0,0,1,3.9-3.09,14.5,14.5,0,0,1,6-1.13,12.19,12.19,0,0,1,8.11,2.54,9.46,9.46,0,0,1,3.33,6.87h-6.87a3.77,3.77,0,0,0-1.42-2.7,6.35,6.35,0,0,0-6.36-.28,2.3,2.3,0,0,0-1.05,2,2.34,2.34,0,0,0,1.44,2.18,21.54,21.54,0,0,0,4.46,1.52,38.3,38.3,0,0,1,5.08,1.6,8.9,8.9,0,0,1,3.46,2.55,7,7,0,0,1,1.52,4.55,7.63,7.63,0,0,1-1.36,4.43,9,9,0,0,1-3.9,3.06,16.22,16.22,0,0,1-12.19-.16Z"/><path class="cls-7" d="M217.64,1170.68a12.61,12.61,0,0,1,4.67-5.14,12.43,12.43,0,0,1,6.59-1.8,11.63,11.63,0,0,1,5.57,1.28,11.2,11.2,0,0,1,3.82,3.25v-4.07h7.24v28.51h-7.24v-4.17a10.55,10.55,0,0,1-3.82,3.32,11.61,11.61,0,0,1-5.62,1.32,12,12,0,0,1-6.54-1.86,12.9,12.9,0,0,1-4.67-5.22,16.78,16.78,0,0,1-1.72-7.75A16.53,16.53,0,0,1,217.64,1170.68Zm19.63,3.27a7.33,7.33,0,0,0-6.52-3.88,7.24,7.24,0,0,0-3.69,1,7.43,7.43,0,0,0-2.75,2.86,9,9,0,0,0-1.05,4.45,9.3,9.3,0,0,0,1.05,4.51,7.69,7.69,0,0,0,2.77,3,7.1,7.1,0,0,0,3.67,1,7.4,7.4,0,0,0,3.75-1,7.32,7.32,0,0,0,2.77-2.88,10.46,10.46,0,0,0,0-9Z"/><path class="cls-7" d="M303.82,1156.79v35.92h-7.18v-23.36l-9.6,23.36H281.6L272,1169.35v23.36h-7.18v-35.92h8.16l11.39,26.71,11.39-26.71Z"/><path class="cls-7" d="M337.12,1180.62H316.34a7.09,7.09,0,0,0,2.16,4.84,6.65,6.65,0,0,0,4.67,1.75,5.86,5.86,0,0,0,5.69-3.45h7.75a13,13,0,0,1-4.72,6.77,13.8,13.8,0,0,1-8.57,2.65,14.75,14.75,0,0,1-7.36-1.83,12.77,12.77,0,0,1-5.08-5.17,15.84,15.84,0,0,1-1.83-7.72,16.22,16.22,0,0,1,1.8-7.78,12.52,12.52,0,0,1,5-5.14,15,15,0,0,1,7.44-1.8,14.88,14.88,0,0,1,7.26,1.75,12.26,12.26,0,0,1,5,5,15.1,15.1,0,0,1,1.77,7.39A16.74,16.74,0,0,1,337.12,1180.62Zm-7.23-4.84a5.73,5.73,0,0,0-2-4.45,7.06,7.06,0,0,0-4.77-1.68,6.55,6.55,0,0,0-4.5,1.63,7.18,7.18,0,0,0-2.23,4.5Z"/><path class="cls-7" d="M342.43,1170.68a12.41,12.41,0,0,1,11.32-6.94A12,12,0,0,1,359,1165a10.58,10.58,0,0,1,4,3.21v-13.53h7.28v38.08H363v-4.22a9.75,9.75,0,0,1-3.75,3.4,11.68,11.68,0,0,1-5.59,1.29,12.13,12.13,0,0,1-6.57-1.86,12.9,12.9,0,0,1-4.7-5.22,16.91,16.91,0,0,1-1.72-7.75A16.66,16.66,0,0,1,342.43,1170.68Zm19.63,3.27a7.25,7.25,0,0,0-2.77-2.88,7.36,7.36,0,0,0-3.74-1,7.28,7.28,0,0,0-3.7,1,7.41,7.41,0,0,0-2.74,2.86,8.88,8.88,0,0,0-1.06,4.45,9.19,9.19,0,0,0,1.06,4.51,7.62,7.62,0,0,0,2.77,3,7.07,7.07,0,0,0,3.67,1,7.37,7.37,0,0,0,3.74-1,7.25,7.25,0,0,0,2.77-2.88,10.37,10.37,0,0,0,0-9Z"/><path class="cls-7" d="M377.84,1159.59a4.23,4.23,0,0,1,0-6,4.72,4.72,0,0,1,6.31,0,4.23,4.23,0,0,1,0,6,4.72,4.72,0,0,1-6.31,0Zm6.7,4.61v28.51h-7.19V1164.2Z"/><path class="cls-7" d="M415.58,1167q3.14,3.23,3.13,9v16.72h-7.18V1177a7.4,7.4,0,0,0-1.7-5.22,6,6,0,0,0-4.61-1.83,6.14,6.14,0,0,0-4.7,1.83,7.32,7.32,0,0,0-1.72,5.22v15.75h-7.18V1164.2h7.18v3.55a10.06,10.06,0,0,1,3.67-2.91,11.37,11.37,0,0,1,4.9-1A10.94,10.94,0,0,1,415.58,1167Z"/><path class="cls-7" d="M425.41,1170.68a12.54,12.54,0,0,1,4.67-5.14,12.4,12.4,0,0,1,6.59-1.8,11.65,11.65,0,0,1,5.57,1.28,11.2,11.2,0,0,1,3.82,3.25v-4.07h7.24v28.51h-7.24v-4.17a10.63,10.63,0,0,1-3.82,3.32,11.63,11.63,0,0,1-5.62,1.32,12,12,0,0,1-6.54-1.86,12.83,12.83,0,0,1-4.67-5.22,16.78,16.78,0,0,1-1.72-7.75A16.53,16.53,0,0,1,425.41,1170.68ZM445,1174a7.28,7.28,0,0,0-2.78-2.88,7.36,7.36,0,0,0-3.74-1,7.22,7.22,0,0,0-3.69,1,7.43,7.43,0,0,0-2.75,2.86,9,9,0,0,0-1.05,4.45,9.3,9.3,0,0,0,1.05,4.51,7.62,7.62,0,0,0,2.77,3,7.1,7.1,0,0,0,3.67,1,7.37,7.37,0,0,0,3.74-1A7.28,7.28,0,0,0,445,1183a10.46,10.46,0,0,0,0-9Z"/><text class="cls-8" transform="translate(184.7 1136.45)">CAPTADOR</text><path class="cls-7" d="M619,1187h11.8v5.71h-19v-35.92H619Z"/><path class="cls-7" d="M662.17,1164.2v28.51h-7.24v-3.6a9.39,9.39,0,0,1-3.62,2.91,11.24,11.24,0,0,1-4.85,1,12.06,12.06,0,0,1-5.9-1.41,10.07,10.07,0,0,1-4-4.17,13.87,13.87,0,0,1-1.46-6.56V1164.2h7.19v15.7a7.4,7.4,0,0,0,1.69,5.22,6,6,0,0,0,4.62,1.83,6.06,6.06,0,0,0,4.67-1.83,7.4,7.4,0,0,0,1.69-5.22v-15.7Z"/><path class="cls-7" d="M669.73,1159.59a4.25,4.25,0,0,1,0-6,4.73,4.73,0,0,1,6.32,0,4.25,4.25,0,0,1,0,6,4.73,4.73,0,0,1-6.32,0Zm6.7,4.61v28.51h-7.18V1164.2Z"/><path class="cls-7" d="M688.13,1191.91a11.07,11.07,0,0,1-4.39-3.42,8.7,8.7,0,0,1-1.77-4.78h7.24a3.93,3.93,0,0,0,1.61,2.72,5.63,5.63,0,0,0,3.52,1.08,5.45,5.45,0,0,0,3.21-.82,2.49,2.49,0,0,0,1.15-2.11,2.21,2.21,0,0,0-1.41-2.08,26,26,0,0,0-4.49-1.52,38.53,38.53,0,0,1-5.21-1.6,9.12,9.12,0,0,1-3.49-2.52,6.8,6.8,0,0,1-1.46-4.58A7.36,7.36,0,0,1,684,1168a9.1,9.1,0,0,1,3.9-3.09,14.47,14.47,0,0,1,6-1.13,12.15,12.15,0,0,1,8.1,2.54,9.43,9.43,0,0,1,3.34,6.87h-6.88a3.72,3.72,0,0,0-1.41-2.7,6.35,6.35,0,0,0-6.36-.28,2.3,2.3,0,0,0-1,2,2.34,2.34,0,0,0,1.44,2.18,21.54,21.54,0,0,0,4.46,1.52,38.3,38.3,0,0,1,5.08,1.6,9,9,0,0,1,3.46,2.55,7,7,0,0,1,1.52,4.55,7.63,7.63,0,0,1-1.36,4.43,9,9,0,0,1-3.9,3.06,16.22,16.22,0,0,1-12.19-.16Z"/><path class="cls-7" d="M711.35,1170.68a12.54,12.54,0,0,1,4.67-5.14,12.4,12.4,0,0,1,6.59-1.8,11.65,11.65,0,0,1,5.57,1.28,11.2,11.2,0,0,1,3.82,3.25v-4.07h7.24v28.51H732v-4.17a10.55,10.55,0,0,1-3.82,3.32,11.61,11.61,0,0,1-5.62,1.32,12,12,0,0,1-6.54-1.86,12.83,12.83,0,0,1-4.67-5.22,16.78,16.78,0,0,1-1.72-7.75A16.53,16.53,0,0,1,711.35,1170.68ZM731,1174a7.32,7.32,0,0,0-2.77-2.88,7.42,7.42,0,0,0-3.75-1,7.24,7.24,0,0,0-3.69,1,7.43,7.43,0,0,0-2.75,2.86,9,9,0,0,0-1,4.45,9.3,9.3,0,0,0,1,4.51,7.69,7.69,0,0,0,2.77,3,7.1,7.1,0,0,0,3.67,1,7.43,7.43,0,0,0,3.75-1A7.32,7.32,0,0,0,731,1183a10.46,10.46,0,0,0,0-9Z"/><path class="cls-7" d="M797.53,1156.79v35.92h-7.18v-23.36l-9.6,23.36h-5.44l-9.65-23.36v23.36h-7.18v-35.92h8.16L778,1183.5l11.39-26.71Z"/><path class="cls-7" d="M830.83,1180.62H810.05a7.09,7.09,0,0,0,2.16,4.84,6.65,6.65,0,0,0,4.67,1.75,5.86,5.86,0,0,0,5.69-3.45h7.75a13,13,0,0,1-4.72,6.77,13.8,13.8,0,0,1-8.57,2.65,14.75,14.75,0,0,1-7.36-1.83,12.77,12.77,0,0,1-5.08-5.17,15.84,15.84,0,0,1-1.83-7.72,16.22,16.22,0,0,1,1.8-7.78,12.52,12.52,0,0,1,5-5.14,16.11,16.11,0,0,1,14.7,0,12.26,12.26,0,0,1,5,5,15.1,15.1,0,0,1,1.77,7.39A16.74,16.74,0,0,1,830.83,1180.62Zm-7.23-4.84a5.73,5.73,0,0,0-2-4.45,7.06,7.06,0,0,0-4.78-1.68,6.53,6.53,0,0,0-4.49,1.63,7.18,7.18,0,0,0-2.23,4.5Z"/><path class="cls-7" d="M836.14,1170.68a12.41,12.41,0,0,1,11.32-6.94,11.94,11.94,0,0,1,5.28,1.21,10.54,10.54,0,0,1,4,3.21v-13.53H864v38.08h-7.28v-4.22a9.75,9.75,0,0,1-3.75,3.4,11.68,11.68,0,0,1-5.59,1.29,12.13,12.13,0,0,1-6.57-1.86,12.83,12.83,0,0,1-4.7-5.22,16.91,16.91,0,0,1-1.72-7.75A16.66,16.66,0,0,1,836.14,1170.68Zm19.63,3.27a7.25,7.25,0,0,0-2.77-2.88,7.37,7.37,0,0,0-3.75-1,7.27,7.27,0,0,0-3.69,1,7.43,7.43,0,0,0-2.75,2.86,9,9,0,0,0-1,4.45,9.3,9.3,0,0,0,1,4.51,7.69,7.69,0,0,0,2.77,3,7.1,7.1,0,0,0,3.67,1,7.38,7.38,0,0,0,3.75-1,7.25,7.25,0,0,0,2.77-2.88,10.37,10.37,0,0,0,0-9Z"/><path class="cls-7" d="M871.55,1159.59a4.23,4.23,0,0,1,0-6,4.72,4.72,0,0,1,6.31,0,4.23,4.23,0,0,1,0,6,4.72,4.72,0,0,1-6.31,0Zm6.7,4.61v28.51h-7.19V1164.2Z"/><path class="cls-7" d="M909.29,1167q3.13,3.23,3.13,9v16.72h-7.18V1177a7.4,7.4,0,0,0-1.7-5.22,6,6,0,0,0-4.61-1.83,6.14,6.14,0,0,0-4.7,1.83,7.32,7.32,0,0,0-1.72,5.22v15.75h-7.18V1164.2h7.18v3.55a10.06,10.06,0,0,1,3.67-2.91,11.37,11.37,0,0,1,4.9-1A11,11,0,0,1,909.29,1167Z"/><path class="cls-7" d="M919.12,1170.68a12.54,12.54,0,0,1,4.67-5.14,12.38,12.38,0,0,1,6.59-1.8A11.65,11.65,0,0,1,936,1165a11.3,11.3,0,0,1,3.82,3.25v-4.07H947v28.51h-7.24v-4.17a10.63,10.63,0,0,1-3.82,3.32,11.63,11.63,0,0,1-5.62,1.32,12,12,0,0,1-6.54-1.86,12.83,12.83,0,0,1-4.67-5.22,16.78,16.78,0,0,1-1.72-7.75A16.53,16.53,0,0,1,919.12,1170.68Zm19.63,3.27a7.28,7.28,0,0,0-2.78-2.88,7.36,7.36,0,0,0-3.74-1,7.22,7.22,0,0,0-3.69,1,7.43,7.43,0,0,0-2.75,2.86,9,9,0,0,0-1,4.45,9.3,9.3,0,0,0,1,4.51,7.62,7.62,0,0,0,2.77,3,7.1,7.1,0,0,0,3.67,1,7.37,7.37,0,0,0,3.74-1,7.28,7.28,0,0,0,2.78-2.88,10.46,10.46,0,0,0,0-9Z"/><rect class="cls-3" x="662.33" y="1099.12" width="231.35" height="48.01" rx="20.47"/><text class="cls-8" transform="translate(678.41 1136.45)">CERRADOR</text><path class="cls-9" d="M974.55,0h105.79a0,0,0,0,1,0,0V241.41a0,0,0,0,1,0,0h-62.05a43.74,43.74,0,0,1-43.74-43.74V0A0,0,0,0,1,974.55,0Z"/><path class="cls-10" d="M891.4,865.31c3.21,0,3.22-5,0-5s-3.22,5,0,5Z"/><path class="cls-10" d="M923.65,865.31c3.21,0,3.22-5,0-5s-3.22,5,0,5Z"/><path class="cls-10" d="M955,865.31c3.22,0,3.22-5,0-5s-3.22,5,0,5Z"/><path class="cls-10" d="M988.15,865.31c3.21,0,3.22-5,0-5s-3.22,5,0,5Z"/><path class="cls-10" d="M891.4,899.33c3.21,0,3.22-5,0-5s-3.22,5,0,5Z"/><path class="cls-10" d="M923.65,899.33c3.21,0,3.22-5,0-5s-3.22,5,0,5Z"/><path class="cls-10" d="M955,899.33c3.22,0,3.22-5,0-5s-3.22,5,0,5Z"/><path class="cls-10" d="M988.15,899.33c3.21,0,3.22-5,0-5s-3.22,5,0,5Z"/><path class="cls-10" d="M891.4,933.34c3.21,0,3.22-5,0-5s-3.22,5,0,5Z"/><path class="cls-10" d="M923.65,933.34c3.21,0,3.22-5,0-5s-3.22,5,0,5Z"/><path class="cls-10" d="M955,933.34c3.22,0,3.22-5,0-5s-3.22,5,0,5Z"/><path class="cls-10" d="M988.15,933.34c3.21,0,3.22-5,0-5s-3.22,5,0,5Z"/><path class="cls-10" d="M891.4,967.35c3.21,0,3.22-5,0-5s-3.22,5,0,5Z"/><path class="cls-10" d="M923.65,967.35c3.21,0,3.22-5,0-5s-3.22,5,0,5Z"/><path class="cls-10" d="M955,967.35c3.22,0,3.22-5,0-5s-3.22,5,0,5Z"/><path class="cls-10" d="M988.15,967.35c3.21,0,3.22-5,0-5s-3.22,5,0,5Z"/><text class="cls-11" transform="translate(105.59 1020.91)">Urb los Guayabitos - Naguanagua </text><path class="cls-12" d="M376.94.17v46a42,42,0,0,1-42,42H-.06"/><path class="cls-12" d="M71.94-.83V282.62a35.55,35.55,0,0,1-35.55,35.55H-.06"/></svg>