<svg xmlns="http://www.w3.org/2000/svg" xmlns:xlink="http://www.w3.org/1999/xlink" viewBox="0 0 606 574.84"><defs><style>.cls-1{fill:none;}.cls-2{fill:url(#Degradado_sin_nombre_533);}.cls-3{clip-path:url(#clip-path);}.cls-4{fill:url(#Degradado_sin_nombre_534);}.cls-5{clip-path:url(#clip-path-2);}.cls-6{fill:url(#Degradado_sin_nombre_533-2);}</style><linearGradient id="Degradado_sin_nombre_533" x1="-152.44" y1="175.07" x2="669.49" y2="175.07" gradientUnits="userSpaceOnUse"><stop offset="0" stop-color="#fdec00"/><stop offset="0.13" stop-color="#fe5500"/><stop offset="0.25" stop-color="#fe6f71"/><stop offset="0.38" stop-color="#ff52b5"/><stop offset="0.5" stop-color="#ff00d4"/><stop offset="0.75" stop-color="#7f2bea"/><stop offset="1" stop-color="#05f"/></linearGradient><clipPath id="clip-path" transform="translate(36.36)"><path class="cls-1" d="M533.28,48.56V289.7c0,55.15-67.77,81.24-104.77,40.76-.33,0-76.59-86.29-76.9-86.36V119.5A48.38,48.38,0,0,1,369,82.37C389.79,69.43,457.59-4.09,484.9.18A48.38,48.38,0,0,1,533.28,48.56Z"/></clipPath><radialGradient id="Degradado_sin_nombre_534" cx="-147.9" cy="184.55" r="1094.61" xlink:href="#Degradado_sin_nombre_533"/><clipPath id="clip-path-2" transform="translate(36.36)"><path class="cls-1" d="M181.66,327.74v135.2a24.8,24.8,0,0,1-11.18,20.73c-6,2.14-141.31,97.71-145.67,90.81A24.81,24.81,0,0,1,0,549.67V282.14c0-55.38,68.35-81.46,105.24-40.24C105.34,242,181.57,327.67,181.66,327.74Z"/></clipPath><linearGradient id="Degradado_sin_nombre_533-2" x1="21.19" y1="40.47" x2="502.15" y2="521.43" xlink:href="#Degradado_sin_nombre_533"/></defs><g id="Capa_2" data-name="Capa 2"><g id="Capa_1-2" data-name="Capa 1"><path class="cls-2" d="M533.28,48.56V289.7c0,55.15-67.77,81.24-104.77,40.76-.33,0-76.59-86.29-76.9-86.36V119.5A48.38,48.38,0,0,1,369,82.37C389.79,69.43,457.59-4.09,484.9.18A48.38,48.38,0,0,1,533.28,48.56Z" transform="translate(36.36)"/><path class="cls-4" d="M181.66,327.74v135.2a24.8,24.8,0,0,1-11.18,20.73c-6,2.14-141.31,97.71-145.67,90.81A24.81,24.81,0,0,1,0,549.67V282.14c0-55.38,68.35-81.46,105.24-40.24C105.34,242,181.57,327.67,181.66,327.74Z" transform="translate(36.36)"/><path class="cls-6" d="M533.28,289.7V485a91,91,0,0,1-158.54,59.49c-.07,0-269.5-302.62-269.5-302.62C68.35,200.68,0,226.76,0,282.14V89.64C-.16,38.36,43.29-2.32,94.33.19a89.43,89.43,0,0,1,65.87,29s268,301.05,268.31,301.32C465.51,370.94,533.28,344.85,533.28,289.7Z" transform="translate(36.36)"/></g></g></svg>