<svg xmlns="http://www.w3.org/2000/svg" viewBox="0 0 1080 1080">
  <rect width="1080" height="1080" fill="#222222" />
  <g transform="translate(358.2, 367.5) scale(0.6)">
    <g id="Capa_2" data-name="Capa 2">
      <g id="Capa_1-2" data-name="Capa 1">
        <path fill="#ffffff" d="M533.28,48.56V289.7c0,55.15-67.77,81.24-104.77,40.76-.33,0-76.59-86.29-76.9-86.36V119.5A48.38,48.38,0,0,1,369,82.37C389.79,69.43,457.59-4.09,484.9.18A48.38,48.38,0,0,1,533.28,48.56Z" transform="translate(36.36)"/>
        <path fill="#ffffff" d="M181.66,327.74v135.2a24.8,24.8,0,0,1-11.18,20.73c-6,2.14-141.31,97.71-145.67,90.81A24.81,24.81,0,0,1,0,549.67V282.14c0-55.38,68.35-81.46,105.24-40.24C105.34,242,181.57,327.67,181.66,327.74Z" transform="translate(36.36)"/>
        <path fill="#ffffff" d="M533.28,289.7V485a91,91,0,0,1-158.54,59.49c-.07,0-269.5-302.62-269.5-302.62C68.35,200.68,0,226.76,0,282.14V89.64C-.16,38.36,43.29-2.32,94.33.19a89.43,89.43,0,0,1,65.87,29s268,301.05,268.31,301.32C465.51,370.94,533.28,344.85,533.28,289.7Z" transform="translate(36.36)"/>
      </g>
    </g>
  </g>
</svg>
